<svg xmlns="http://www.w3.org/2000/svg" direction="ltr" width="2048" height="2048" viewBox="20813.450378471967 56322.6973464254 2048 2048" stroke-linecap="round" stroke-linejoin="round" data-color-mode="light" class="tl-container tl-theme__force-sRGB tl-theme__light" style="background-color: transparent;"><defs/><g transform="matrix(1, 0, 0, 1, 20813.4504, 56322.6973)" opacity="1"><g data-lovart-layer-name="SVG 1"><g transform="scale(1.4143646408839778, 1.4143646408839778)"><g>
<g xmlns="http://www.w3.org/2000/svg" stroke-width="2.00" fill="none" stroke-linecap="butt">
<path stroke="#808282" vector-effect="non-scaling-stroke" d="   M 723.48 911.68   A 0.63 0.63 0.0 0 0 724.48 911.68   Q 728.66 906.32 731.93 902.42   Q 747.19 884.24 816.80 802.90   C 824.75 793.61 831.01 785.31 839.22 775.98   Q 841.02 773.92 842.65 772.97   A 3.32 3.30 -54.5 0 1 844.93 772.58   Q 890.68 781.27 960.17 794.33   C 976.00 797.31 986.56 798.83 998.25 801.38   Q 1007.51 803.40 1029.73 807.52   C 1045.69 810.49 1060.13 812.32 1073.00 801.36   C 1081.42 794.19 1085.98 783.54 1086.06 772.97   Q 1086.15 763.13 1081.01 752.41   Q 1079.75 749.78 1075.66 743.99   C 1071.08 737.51 1065.37 728.36 1062.82 724.51   Q 1023.97 665.88 993.52 619.01   C 982.02 601.32 970.65 584.95 961.92 571.42   Q 945.04 545.26 938.48 535.59   C 922.95 512.73 909.19 491.20 895.17 470.42   Q 877.92 444.84 872.67 436.80   Q 858.10 414.48 850.41 403.04   C 822.28 361.21 789.52 311.32 755.74 261.00   Q 752.77 256.57 750.35 252.49   C 743.20 240.44 730.87 229.85 716.31 235.24   C 710.01 237.57 704.84 242.36 701.17 247.91   Q 667.50 298.83 614.07 378.79   Q 573.83 439.01 398.49 704.26   Q 388.37 719.57 377.06 737.46   C 374.31 741.82 370.03 747.33 367.45 752.20   Q 357.23 771.53 366.62 791.09   C 372.70 803.75 386.05 810.23 399.65 809.86   Q 407.82 809.64 418.43 807.65   C 439.83 803.63 448.84 801.51 468.62 798.04   C 490.38 794.22 511.32 789.84 538.07 785.06   Q 552.39 782.50 578.58 777.25   C 586.29 775.70 595.43 774.27 603.38 772.58   Q 605.17 772.20 606.96 774.00   Q 610.61 777.66 611.48 778.73   Q 628.37 799.38 640.67 813.84   Q 689.39 871.10 715.73 902.04   Q 719.88 906.91 723.48 911.68"/>
<path stroke="#b6b6b6" vector-effect="non-scaling-stroke" d="   M 733.04 1103.77   L 733.03 956.33   A 0.42 0.42 0.0 0 0 732.61 955.91   L 715.44 955.91   A 0.48 0.48 0.0 0 0 714.96 956.39   L 714.96 1103.78"/>
<path stroke="#808282" vector-effect="non-scaling-stroke" d="   M 714.96 1103.78   Q 714.41 1103.75 713.75 1103.75   Q 482.98 1103.80 426.76 1103.80   Q 414.17 1103.80 409.80 1103.21   Q 401.88 1102.12 393.37 1098.94   C 363.23 1087.66 340.67 1062.35 334.54 1030.71   Q 333.18 1023.69 333.20 1010.69   Q 333.28 963.39 333.14 377.67   Q 333.14 372.78 333.57 370.36   C 336.59 353.55 350.34 339.04 366.64 334.44   Q 371.26 333.13 379.97 333.14   Q 412.85 333.19 592.65 333.17   A 1.72 1.71 -73.0 0 0 594.07 332.41   L 621.70 291.08   A 1.07 1.06 27.4 0 0 621.19 289.49   Q 620.78 289.34 620.24 289.34   Q 387.96 289.41 375.42 289.31   Q 358.22 289.17 350.71 290.76   Q 332.96 294.51 318.18 305.98   C 299.66 320.36 288.98 345.52 288.97 368.75   Q 288.80 729.34 289.08 1024.02   C 289.12 1057.18 301.44 1090.37 323.79 1114.66   C 348.54 1141.55 383.91 1158.60 420.75 1158.59   Q 791.26 1158.58 1022.64 1158.61   Q 1037.46 1158.61 1045.29 1157.32   C 1073.61 1152.66 1099.28 1139.60 1119.70 1119.39   C 1142.96 1096.36 1156.51 1065.21 1158.69 1032.41   Q 1158.93 1028.77 1158.95 1003.62   Q 1159.16 739.28 1159.11 380.11   Q 1159.11 361.18 1157.73 353.97   C 1153.62 332.38 1141.40 312.34 1122.61 300.92   Q 1110.45 293.53 1097.19 290.75   Q 1090.11 289.27 1069.77 289.32   Q 1025.09 289.43 827.30 289.35   A 1.11 1.09 -89.2 0 0 826.20 290.44   Q 826.20 290.92 826.44 291.27   Q 826.99 292.04 853.95 332.40   A 1.76 1.75 -16.8 0 0 855.41 333.18   Q 987.67 333.19 1068.37 333.17   Q 1076.59 333.17 1080.54 334.22   C 1090.08 336.77 1098.57 342.27 1104.78 350.05   C 1110.56 357.28 1114.90 366.37 1114.90 375.37   Q 1114.70 981.10 1114.84 1009.74   Q 1114.90 1023.35 1113.47 1030.66   C 1106.85 1064.44 1082.14 1090.47 1049.39 1100.74   C 1044.62 1102.23 1037.29 1103.81 1032.75 1103.81   Q 945.73 1103.83 734.00 1103.75   Q 733.48 1103.75 733.04 1103.77"/>
<path stroke="#373838" vector-effect="non-scaling-stroke" d="   M 714.96 1103.78   L 733.04 1103.77"/>
<path stroke="#808282" vector-effect="non-scaling-stroke" d="   M 414.22 390.18   A 23.97 23.97 0.0 0 0 390.25 366.21   A 23.97 23.97 0.0 0 0 366.28 390.18   A 23.97 23.97 0.0 0 0 390.25 414.15   A 23.97 23.97 0.0 0 0 414.22 390.18"/>
<path stroke="#808282" vector-effect="non-scaling-stroke" d="   M 485.77 390.19   A 23.91 23.91 0.0 0 0 461.86 366.28   A 23.91 23.91 0.0 0 0 437.95 390.19   A 23.91 23.91 0.0 0 0 461.86 414.10   A 23.91 23.91 0.0 0 0 485.77 390.19"/>
<path stroke="#808282" vector-effect="non-scaling-stroke" d="   M 557.63 390.14   A 23.96 23.96 0.0 0 0 533.67 366.18   A 23.96 23.96 0.0 0 0 509.71 390.14   A 23.96 23.96 0.0 0 0 533.67 414.10   A 23.96 23.96 0.0 0 0 557.63 390.14"/>
<path stroke="#808282" vector-effect="non-scaling-stroke" d="   M 715.00 402.83   Q 710.19 421.37 706.42 439.76   Q 704.69 448.22 703.12 454.90   Q 699.97 468.38 699.60 470.00   Q 688.72 518.37 676.97 570.34   Q 648.39 696.74 639.25 735.84   Q 638.42 739.38 638.31 742.07   A 4.38 4.35 26.1 0 0 639.34 745.04   L 715.07 833.66"/>
<path stroke="#373838" vector-effect="non-scaling-stroke" d="   M 715.07 833.66   L 723.99 844.27   A 0.57 0.57 0.0 0 0 724.86 844.28   L 733.55 834.06"/>
<path stroke="#808282" vector-effect="non-scaling-stroke" d="   M 733.55 834.06   Q 769.46 791.15 805.80 748.60   C 808.89 744.99 810.70 743.59 809.63 739.21   Q 803.61 714.47 798.21 689.94   Q 794.42 672.72 787.03 640.60   Q 780.25 611.12 775.07 587.54   Q 771.59 571.73 770.14 565.70   C 765.41 546.09 762.28 530.83 757.67 511.15   C 752.76 490.22 748.66 469.87 743.28 446.02   Q 738.43 424.48 733.67 403.04   Q 733.41 401.88 733.01 400.80"/>
<path stroke="#373838" vector-effect="non-scaling-stroke" d="   M 733.01 400.80   Q 728.67 381.58 725.02 362.24   Q 724.83 361.26 724.43 360.52   A 0.31 0.31 0.0 0 0 723.86 360.61   L 715.00 402.83"/>
<path stroke="#b6b6b6" vector-effect="non-scaling-stroke" d="   M 733.01 400.80   Q 732.79 617.14 732.99 833.50   Q 732.99 833.98 733.55 834.06"/>
<path stroke="#b6b6b6" vector-effect="non-scaling-stroke" d="   M 715.07 833.66   L 715.00 402.83"/>
<path stroke="#373838" vector-effect="non-scaling-stroke" d="   M 288.87 459.13   Q 288.88 462.49 289.09 462.49   Q 289.31 462.49 289.31 459.13   Q 289.31 455.76 289.09 455.76   Q 288.87 455.76 288.87 459.13"/>
<path stroke="#373838" vector-effect="non-scaling-stroke" d="   M 288.88 480.13   Q 288.88 482.49 289.13 482.49   Q 289.37 482.49 289.37 480.13   Q 289.37 477.76 289.12 477.77   Q 288.87 477.77 288.88 480.13"/>
</g>
<path xmlns="http://www.w3.org/2000/svg" fill="none" d="   M 1448.00 0.00   L 1448.00 1448.00   L 0.00 1448.00   L 0.00 0.00   L 1448.00 0.00   Z   M 723.48 911.68   A 0.63 0.63 0.0 0 0 724.48 911.68   Q 728.66 906.32 731.93 902.42   Q 747.19 884.24 816.80 802.90   C 824.75 793.61 831.01 785.31 839.22 775.98   Q 841.02 773.92 842.65 772.97   A 3.32 3.30 -54.5 0 1 844.93 772.58   Q 890.68 781.27 960.17 794.33   C 976.00 797.31 986.56 798.83 998.25 801.38   Q 1007.51 803.40 1029.73 807.52   C 1045.69 810.49 1060.13 812.32 1073.00 801.36   C 1081.42 794.19 1085.98 783.54 1086.06 772.97   Q 1086.15 763.13 1081.01 752.41   Q 1079.75 749.78 1075.66 743.99   C 1071.08 737.51 1065.37 728.36 1062.82 724.51   Q 1023.97 665.88 993.52 619.01   C 982.02 601.32 970.65 584.95 961.92 571.42   Q 945.04 545.26 938.48 535.59   C 922.95 512.73 909.19 491.20 895.17 470.42   Q 877.92 444.84 872.67 436.80   Q 858.10 414.48 850.41 403.04   C 822.28 361.21 789.52 311.32 755.74 261.00   Q 752.77 256.57 750.35 252.49   C 743.20 240.44 730.87 229.85 716.31 235.24   C 710.01 237.57 704.84 242.36 701.17 247.91   Q 667.50 298.83 614.07 378.79   Q 573.83 439.01 398.49 704.26   Q 388.37 719.57 377.06 737.46   C 374.31 741.82 370.03 747.33 367.45 752.20   Q 357.23 771.53 366.62 791.09   C 372.70 803.75 386.05 810.23 399.65 809.86   Q 407.82 809.64 418.43 807.65   C 439.83 803.63 448.84 801.51 468.62 798.04   C 490.38 794.22 511.32 789.84 538.07 785.06   Q 552.39 782.50 578.58 777.25   C 586.29 775.70 595.43 774.27 603.38 772.58   Q 605.17 772.20 606.96 774.00   Q 610.61 777.66 611.48 778.73   Q 628.37 799.38 640.67 813.84   Q 689.39 871.10 715.73 902.04   Q 719.88 906.91 723.48 911.68   Z   M 733.04 1103.77   L 733.03 956.33   A 0.42 0.42 0.0 0 0 732.61 955.91   L 715.44 955.91   A 0.48 0.48 0.0 0 0 714.96 956.39   L 714.96 1103.78   Q 714.41 1103.75 713.75 1103.75   Q 482.98 1103.80 426.76 1103.80   Q 414.17 1103.80 409.80 1103.21   Q 401.88 1102.12 393.37 1098.94   C 363.23 1087.66 340.67 1062.35 334.54 1030.71   Q 333.18 1023.69 333.20 1010.69   Q 333.28 963.39 333.14 377.67   Q 333.14 372.78 333.57 370.36   C 336.59 353.55 350.34 339.04 366.64 334.44   Q 371.26 333.13 379.97 333.14   Q 412.85 333.19 592.65 333.17   A 1.72 1.71 -73.0 0 0 594.07 332.41   L 621.70 291.08   A 1.07 1.06 27.4 0 0 621.19 289.49   Q 620.78 289.34 620.24 289.34   Q 387.96 289.41 375.42 289.31   Q 358.22 289.17 350.71 290.76   Q 332.96 294.51 318.18 305.98   C 299.66 320.36 288.98 345.52 288.97 368.75   Q 288.80 729.34 289.08 1024.02   C 289.12 1057.18 301.44 1090.37 323.79 1114.66   C 348.54 1141.55 383.91 1158.60 420.75 1158.59   Q 791.26 1158.58 1022.64 1158.61   Q 1037.46 1158.61 1045.29 1157.32   C 1073.61 1152.66 1099.28 1139.60 1119.70 1119.39   C 1142.96 1096.36 1156.51 1065.21 1158.69 1032.41   Q 1158.93 1028.77 1158.95 1003.62   Q 1159.16 739.28 1159.11 380.11   Q 1159.11 361.18 1157.73 353.97   C 1153.62 332.38 1141.40 312.34 1122.61 300.92   Q 1110.45 293.53 1097.19 290.75   Q 1090.11 289.27 1069.77 289.32   Q 1025.09 289.43 827.30 289.35   A 1.11 1.09 -89.2 0 0 826.20 290.44   Q 826.20 290.92 826.44 291.27   Q 826.99 292.04 853.95 332.40   A 1.76 1.75 -16.8 0 0 855.41 333.18   Q 987.67 333.19 1068.37 333.17   Q 1076.59 333.17 1080.54 334.22   C 1090.08 336.77 1098.57 342.27 1104.78 350.05   C 1110.56 357.28 1114.90 366.37 1114.90 375.37   Q 1114.70 981.10 1114.84 1009.74   Q 1114.90 1023.35 1113.47 1030.66   C 1106.85 1064.44 1082.14 1090.47 1049.39 1100.74   C 1044.62 1102.23 1037.29 1103.81 1032.75 1103.81   Q 945.73 1103.83 734.00 1103.75   Q 733.48 1103.75 733.04 1103.77   Z   M 414.22 390.18   A 23.97 23.97 0.0 0 0 390.25 366.21   A 23.97 23.97 0.0 0 0 366.28 390.18   A 23.97 23.97 0.0 0 0 390.25 414.15   A 23.97 23.97 0.0 0 0 414.22 390.18   Z   M 485.77 390.19   A 23.91 23.91 0.0 0 0 461.86 366.28   A 23.91 23.91 0.0 0 0 437.95 390.19   A 23.91 23.91 0.0 0 0 461.86 414.10   A 23.91 23.91 0.0 0 0 485.77 390.19   Z   M 557.63 390.14   A 23.96 23.96 0.0 0 0 533.67 366.18   A 23.96 23.96 0.0 0 0 509.71 390.14   A 23.96 23.96 0.0 0 0 533.67 414.10   A 23.96 23.96 0.0 0 0 557.63 390.14   Z"/>
<path xmlns="http://www.w3.org/2000/svg" fill="#010404" d="   M 723.48 911.68   Q 719.88 906.91 715.73 902.04   Q 689.39 871.10 640.67 813.84   Q 628.37 799.38 611.48 778.73   Q 610.61 777.66 606.96 774.00   Q 605.17 772.20 603.38 772.58   C 595.43 774.27 586.29 775.70 578.58 777.25   Q 552.39 782.50 538.07 785.06   C 511.32 789.84 490.38 794.22 468.62 798.04   C 448.84 801.51 439.83 803.63 418.43 807.65   Q 407.82 809.64 399.65 809.86   C 386.05 810.23 372.70 803.75 366.62 791.09   Q 357.23 771.53 367.45 752.20   C 370.03 747.33 374.31 741.82 377.06 737.46   Q 388.37 719.57 398.49 704.26   Q 573.83 439.01 614.07 378.79   Q 667.50 298.83 701.17 247.91   C 704.84 242.36 710.01 237.57 716.31 235.24   C 730.87 229.85 743.20 240.44 750.35 252.49   Q 752.77 256.57 755.74 261.00   C 789.52 311.32 822.28 361.21 850.41 403.04   Q 858.10 414.48 872.67 436.80   Q 877.92 444.84 895.17 470.42   C 909.19 491.20 922.95 512.73 938.48 535.59   Q 945.04 545.26 961.92 571.42   C 970.65 584.95 982.02 601.32 993.52 619.01   Q 1023.97 665.88 1062.82 724.51   C 1065.37 728.36 1071.08 737.51 1075.66 743.99   Q 1079.75 749.78 1081.01 752.41   Q 1086.15 763.13 1086.06 772.97   C 1085.98 783.54 1081.42 794.19 1073.00 801.36   C 1060.13 812.32 1045.69 810.49 1029.73 807.52   Q 1007.51 803.40 998.25 801.38   C 986.56 798.83 976.00 797.31 960.17 794.33   Q 890.68 781.27 844.93 772.58   A 3.32 3.30 -54.5 0 0 842.65 772.97   Q 841.02 773.92 839.22 775.98   C 831.01 785.31 824.75 793.61 816.80 802.90   Q 747.19 884.24 731.93 902.42   Q 728.66 906.32 724.48 911.68   A 0.63 0.63 0.0 0 1 723.48 911.68   Z   M 715.00 402.83   Q 710.19 421.37 706.42 439.76   Q 704.69 448.22 703.12 454.90   Q 699.97 468.38 699.60 470.00   Q 688.72 518.37 676.97 570.34   Q 648.39 696.74 639.25 735.84   Q 638.42 739.38 638.31 742.07   A 4.38 4.35 26.1 0 0 639.34 745.04   L 715.07 833.66   L 723.99 844.27   A 0.57 0.57 0.0 0 0 724.86 844.28   L 733.55 834.06   Q 769.46 791.15 805.80 748.60   C 808.89 744.99 810.70 743.59 809.63 739.21   Q 803.61 714.47 798.21 689.94   Q 794.42 672.72 787.03 640.60   Q 780.25 611.12 775.07 587.54   Q 771.59 571.73 770.14 565.70   C 765.41 546.09 762.28 530.83 757.67 511.15   C 752.76 490.22 748.66 469.87 743.28 446.02   Q 738.43 424.48 733.67 403.04   Q 733.41 401.88 733.01 400.80   Q 728.67 381.58 725.02 362.24   Q 724.83 361.26 724.43 360.52   A 0.31 0.31 0.0 0 0 723.86 360.61   L 715.00 402.83   Z"/>
<path xmlns="http://www.w3.org/2000/svg" fill="#010404" d="   M 714.96 1103.78   L 733.04 1103.77   Q 733.48 1103.75 734.00 1103.75   Q 945.73 1103.83 1032.75 1103.81   C 1037.29 1103.81 1044.62 1102.23 1049.39 1100.74   C 1082.14 1090.47 1106.85 1064.44 1113.47 1030.66   Q 1114.90 1023.35 1114.84 1009.74   Q 1114.70 981.10 1114.90 375.37   C 1114.90 366.37 1110.56 357.28 1104.78 350.05   C 1098.57 342.27 1090.08 336.77 1080.54 334.22   Q 1076.59 333.17 1068.37 333.17   Q 987.67 333.19 855.41 333.18   A 1.76 1.75 -16.8 0 1 853.95 332.40   Q 826.99 292.04 826.44 291.27   Q 826.20 290.92 826.20 290.44   A 1.11 1.09 -89.2 0 1 827.30 289.35   Q 1025.09 289.43 1069.77 289.32   Q 1090.11 289.27 1097.19 290.75   Q 1110.45 293.53 1122.61 300.92   C 1141.40 312.34 1153.62 332.38 1157.73 353.97   Q 1159.11 361.18 1159.11 380.11   Q 1159.16 739.28 1158.95 1003.62   Q 1158.93 1028.77 1158.69 1032.41   C 1156.51 1065.21 1142.96 1096.36 1119.70 1119.39   C 1099.28 1139.60 1073.61 1152.66 1045.29 1157.32   Q 1037.46 1158.61 1022.64 1158.61   Q 791.26 1158.58 420.75 1158.59   C 383.91 1158.60 348.54 1141.55 323.79 1114.66   C 301.44 1090.37 289.12 1057.18 289.08 1024.02   Q 288.80 729.34 288.97 368.75   C 288.98 345.52 299.66 320.36 318.18 305.98   Q 332.96 294.51 350.71 290.76   Q 358.22 289.17 375.42 289.31   Q 387.96 289.41 620.24 289.34   Q 620.78 289.34 621.19 289.49   A 1.07 1.06 27.4 0 1 621.70 291.08   L 594.07 332.41   A 1.72 1.71 -73.0 0 1 592.65 333.17   Q 412.85 333.19 379.97 333.14   Q 371.26 333.13 366.64 334.44   C 350.34 339.04 336.59 353.55 333.57 370.36   Q 333.14 372.78 333.14 377.67   Q 333.28 963.39 333.20 1010.69   Q 333.18 1023.69 334.54 1030.71   C 340.67 1062.35 363.23 1087.66 393.37 1098.94   Q 401.88 1102.12 409.80 1103.21   Q 414.17 1103.80 426.76 1103.80   Q 482.98 1103.80 713.75 1103.75   Q 714.41 1103.75 714.96 1103.78   Z   M 288.87 459.13   Q 288.88 462.49 289.09 462.49   Q 289.31 462.49 289.31 459.13   Q 289.31 455.76 289.09 455.76   Q 288.87 455.76 288.87 459.13   Z   M 288.88 480.13   Q 288.88 482.49 289.13 482.49   Q 289.37 482.49 289.37 480.13   Q 289.37 477.76 289.12 477.77   Q 288.87 477.77 288.88 480.13   Z"/>
<path xmlns="http://www.w3.org/2000/svg" fill="#6c6c6c" d="   M 733.01 400.80   Q 732.79 617.14 732.99 833.50   Q 732.99 833.98 733.55 834.06   L 724.86 844.28   A 0.57 0.57 0.0 0 1 723.99 844.27   L 715.07 833.66   L 715.00 402.83   L 723.86 360.61   A 0.31 0.31 0.0 0 1 724.43 360.52   Q 724.83 361.26 725.02 362.24   Q 728.67 381.58 733.01 400.80   Z"/>
<circle xmlns="http://www.w3.org/2000/svg" fill="#010404" cx="390.25" cy="390.18" r="23.97"/>
<circle xmlns="http://www.w3.org/2000/svg" fill="#010404" cx="461.86" cy="390.19" r="23.91"/>
<circle xmlns="http://www.w3.org/2000/svg" fill="#010404" cx="533.67" cy="390.14" r="23.96"/>
<path xmlns="http://www.w3.org/2000/svg" fill="#ffffff" d="   M 733.01 400.80   Q 733.41 401.88 733.67 403.04   Q 738.43 424.48 743.28 446.02   C 748.66 469.87 752.76 490.22 757.67 511.15   C 762.28 530.83 765.41 546.09 770.14 565.70   Q 771.59 571.73 775.07 587.54   Q 780.25 611.12 787.03 640.60   Q 794.42 672.72 798.21 689.94   Q 803.61 714.47 809.63 739.21   C 810.70 743.59 808.89 744.99 805.80 748.60   Q 769.46 791.15 733.55 834.06   Q 732.99 833.98 732.99 833.50   Q 732.79 617.14 733.01 400.80   Z"/>
<path xmlns="http://www.w3.org/2000/svg" fill="#ffffff" d="   M 715.07 833.66   L 639.34 745.04   A 4.38 4.35 26.1 0 1 638.31 742.07   Q 638.42 739.38 639.25 735.84   Q 648.39 696.74 676.97 570.34   Q 688.72 518.37 699.60 470.00   Q 699.97 468.38 703.12 454.90   Q 704.69 448.22 706.42 439.76   Q 710.19 421.37 715.00 402.83   L 715.07 833.66   Z"/>
<path xmlns="http://www.w3.org/2000/svg" fill="#6c6c6c" d="   M 289.09 455.76   Q 289.31 455.76 289.31 459.13   Q 289.31 462.49 289.09 462.49   Q 288.88 462.49 288.87 459.13   Q 288.87 455.76 289.09 455.76   Z"/>
<path xmlns="http://www.w3.org/2000/svg" fill="#6c6c6c" d="   M 289.12 477.77   Q 289.37 477.76 289.37 480.13   Q 289.37 482.49 289.13 482.49   Q 288.88 482.49 288.88 480.13   Q 288.87 477.77 289.12 477.77   Z"/>
<path xmlns="http://www.w3.org/2000/svg" fill="#6c6c6c" d="   M 733.04 1103.77   L 714.96 1103.78   L 714.96 956.39   A 0.48 0.48 0.0 0 1 715.44 955.91   L 732.61 955.91   A 0.42 0.42 0.0 0 1 733.03 956.33   L 733.04 1103.77   Z"/>
</g></g></g></g></svg>